{
	"asset":{
		"generator":"Khronos glTF Blender I/O v3.6.27",
		"version":"2.0"
	},
	"scene":0,
	"scenes":[
		{
			"name":"Scene",
			"nodes":[
				0
			]
		}
	],
	"nodes":[
		{
			"mesh":0,
			"name":"01_gun",
			"rotation":[
				0.7071068286895752,
				0,
				0,
				0.7071068286895752
			]
		}
	],
	"materials":[
		{
			"doubleSided":true,
			"name":"gun_back_side",
			"pbrMetallicRoughness":{
				"baseColorTexture":{
					"index":0,
					"texCoord":1
				},
				"metallicFactor":0,
				"roughnessFactor":0.5
			}
		},
		{
			"doubleSided":true,
			"name":"gun_middle_side",
			"pbrMetallicRoughness":{
				"baseColorTexture":{
					"index":1,
					"texCoord":1
				},
				"metallicFactor":0,
				"roughnessFactor":0.5
			}
		},
		{
			"doubleSided":true,
			"name":"gun_misc",
			"pbrMetallicRoughness":{
				"baseColorTexture":{
					"index":2,
					"texCoord":1
				},
				"metallicFactor":0,
				"roughnessFactor":0.5
			}
		}
	],
	"meshes":[
		{
			"name":"Main_Gun_Cylinder.002",
			"primitives":[
				{
					"attributes":{
						"COLOR_0":0,
						"POSITION":1,
						"NORMAL":2,
						"TEXCOORD_0":3,
						"TEXCOORD_1":4
					},
					"indices":5,
					"material":0
				},
				{
					"attributes":{
						"COLOR_0":6,
						"POSITION":7,
						"NORMAL":8,
						"TEXCOORD_0":9,
						"TEXCOORD_1":10
					},
					"indices":11,
					"material":1
				},
				{
					"attributes":{
						"COLOR_0":12,
						"POSITION":13,
						"NORMAL":14,
						"TEXCOORD_0":15,
						"TEXCOORD_1":16
					},
					"indices":17,
					"material":2
				}
			]
		}
	],
	"textures":[
		{
			"sampler":0,
			"source":0
		},
		{
			"sampler":0,
			"source":1
		},
		{
			"sampler":0,
			"source":2
		}
	],
	"images":[
		{
			"bufferView":6,
			"mimeType":"image/png",
			"name":"gun_back_side"
		},
		{
			"bufferView":13,
			"mimeType":"image/png",
			"name":"gun_middle_side"
		},
		{
			"bufferView":20,
			"mimeType":"image/png",
			"name":"gun_misc"
		}
	],
	"accessors":[
		{
			"bufferView":0,
			"componentType":5126,
			"count":141,
			"type":"VEC4"
		},
		{
			"bufferView":1,
			"componentType":5126,
			"count":141,
			"max":[
				0.011197947897017002,
				0.036454398185014725,
				0.034909915179014206
			],
			"min":[
				-0.011197947897017002,
				-0.22576601803302765,
				-0.07963502407073975
			],
			"type":"VEC3"
		},
		{
			"bufferView":2,
			"componentType":5126,
			"count":141,
			"type":"VEC3"
		},
		{
			"bufferView":3,
			"componentType":5126,
			"count":141,
			"type":"VEC2"
		},
		{
			"bufferView":4,
			"componentType":5126,
			"count":141,
			"type":"VEC2"
		},
		{
			"bufferView":5,
			"componentType":5123,
			"count":291,
			"type":"SCALAR"
		},
		{
			"bufferView":7,
			"componentType":5126,
			"count":128,
			"type":"VEC4"
		},
		{
			"bufferView":8,
			"componentType":5126,
			"count":128,
			"max":[
				0.023293999955058098,
				-0.08834339678287506,
				-0.0021845886949449778
			],
			"min":[
				-0.023293999955058098,
				-0.220753014087677,
				-0.0799042135477066
			],
			"type":"VEC3"
		},
		{
			"bufferView":9,
			"componentType":5126,
			"count":128,
			"type":"VEC3"
		},
		{
			"bufferView":10,
			"componentType":5126,
			"count":128,
			"type":"VEC2"
		},
		{
			"bufferView":11,
			"componentType":5126,
			"count":128,
			"type":"VEC2"
		},
		{
			"bufferView":12,
			"componentType":5123,
			"count":228,
			"type":"SCALAR"
		},
		{
			"bufferView":14,
			"componentType":5126,
			"count":220,
			"type":"VEC4"
		},
		{
			"bufferView":15,
			"componentType":5126,
			"count":220,
			"max":[
				0.023293999955058098,
				0.036454398185014725,
				0.034909915179014206
			],
			"min":[
				-0.023293999955058098,
				-0.22576601803302765,
				-0.07963539659976959
			],
			"type":"VEC3"
		},
		{
			"bufferView":16,
			"componentType":5126,
			"count":220,
			"type":"VEC3"
		},
		{
			"bufferView":17,
			"componentType":5126,
			"count":220,
			"type":"VEC2"
		},
		{
			"bufferView":18,
			"componentType":5126,
			"count":220,
			"type":"VEC2"
		},
		{
			"bufferView":19,
			"componentType":5123,
			"count":372,
			"type":"SCALAR"
		}
	],
	"bufferViews":[
		{
			"buffer":0,
			"byteLength":2256,
			"byteOffset":0,
			"target":34962
		},
		{
			"buffer":0,
			"byteLength":1692,
			"byteOffset":2256,
			"target":34962
		},
		{
			"buffer":0,
			"byteLength":1692,
			"byteOffset":3948,
			"target":34962
		},
		{
			"buffer":0,
			"byteLength":1128,
			"byteOffset":5640,
			"target":34962
		},
		{
			"buffer":0,
			"byteLength":1128,
			"byteOffset":6768,
			"target":34962
		},
		{
			"buffer":0,
			"byteLength":582,
			"byteOffset":7896,
			"target":34963
		},
		{
			"buffer":0,
			"byteLength":4722,
			"byteOffset":8480
		},
		{
			"buffer":0,
			"byteLength":2048,
			"byteOffset":13204,
			"target":34962
		},
		{
			"buffer":0,
			"byteLength":1536,
			"byteOffset":15252,
			"target":34962
		},
		{
			"buffer":0,
			"byteLength":1536,
			"byteOffset":16788,
			"target":34962
		},
		{
			"buffer":0,
			"byteLength":1024,
			"byteOffset":18324,
			"target":34962
		},
		{
			"buffer":0,
			"byteLength":1024,
			"byteOffset":19348,
			"target":34962
		},
		{
			"buffer":0,
			"byteLength":456,
			"byteOffset":20372,
			"target":34963
		},
		{
			"buffer":0,
			"byteLength":3914,
			"byteOffset":20828
		},
		{
			"buffer":0,
			"byteLength":3520,
			"byteOffset":24744,
			"target":34962
		},
		{
			"buffer":0,
			"byteLength":2640,
			"byteOffset":28264,
			"target":34962
		},
		{
			"buffer":0,
			"byteLength":2640,
			"byteOffset":30904,
			"target":34962
		},
		{
			"buffer":0,
			"byteLength":1760,
			"byteOffset":33544,
			"target":34962
		},
		{
			"buffer":0,
			"byteLength":1760,
			"byteOffset":35304,
			"target":34962
		},
		{
			"buffer":0,
			"byteLength":744,
			"byteOffset":37064,
			"target":34963
		},
		{
			"buffer":0,
			"byteLength":4265,
			"byteOffset":37808
		}
	],
	"samplers":[
		{
			"magFilter":9728,
			"minFilter":9984
		}
	],
	"buffers":[
		{
			"byteLength":42076,
			"uri":"data:application/octet-stream;base64,"
		}
	]
}
