{
	"asset":{
		"generator":"Khronos glTF Blender I/O v3.6.27",
		"version":"2.0"
	},
	"scene":0,
	"scenes":[
		{
			"name":"Scene",
			"nodes":[
				0
			]
		}
	],
	"nodes":[
		{
			"mesh":0,
			"name":"01_gun",
			"rotation":[
				0.5,
				0.5,
				-0.5,
				0.5000000596046448
			]
		}
	],
	"materials":[
		{
			"doubleSided":true,
			"name":"gun_back_side",
			"pbrMetallicRoughness":{
				"baseColorTexture":{
					"index":0
				},
				"metallicFactor":0,
				"roughnessFactor":0.5
			}
		},
		{
			"doubleSided":true,
			"name":"gun_middle_side",
			"pbrMetallicRoughness":{
				"baseColorTexture":{
					"index":1
				},
				"metallicFactor":0,
				"roughnessFactor":0.5
			}
		},
		{
			"doubleSided":true,
			"name":"gun_misc",
			"pbrMetallicRoughness":{
				"baseColorTexture":{
					"index":2
				},
				"metallicFactor":0,
				"roughnessFactor":0.5
			}
		}
	],
	"meshes":[
		{
			"name":"01_gun",
			"primitives":[
				{
					"attributes":{
						"COLOR_0":0,
						"POSITION":1,
						"NORMAL":2,
						"TEXCOORD_0":3
					},
					"indices":4,
					"material":0
				},
				{
					"attributes":{
						"COLOR_0":5,
						"POSITION":6,
						"NORMAL":7,
						"TEXCOORD_0":8
					},
					"indices":9,
					"material":1
				},
				{
					"attributes":{
						"COLOR_0":10,
						"POSITION":11,
						"NORMAL":12,
						"TEXCOORD_0":13
					},
					"indices":14,
					"material":2
				}
			]
		}
	],
	"textures":[
		{
			"sampler":0,
			"source":0
		},
		{
			"sampler":0,
			"source":1
		},
		{
			"sampler":0,
			"source":2
		}
	],
	"images":[
		{
			"bufferView":5,
			"mimeType":"image/png",
			"name":"gun_back_side"
		},
		{
			"bufferView":11,
			"mimeType":"image/png",
			"name":"gun_middle_side"
		},
		{
			"bufferView":17,
			"mimeType":"image/png",
			"name":"gun_misc"
		}
	],
	"accessors":[
		{
			"bufferView":0,
			"componentType":5126,
			"count":116,
			"type":"VEC4"
		},
		{
			"bufferView":1,
			"componentType":5126,
			"count":116,
			"max":[
				0.01119800005108118,
				0.03645399957895279,
				0.03491000086069107
			],
			"min":[
				-0.01119800005108118,
				-0.22576600313186646,
				-0.07963500171899796
			],
			"type":"VEC3"
		},
		{
			"bufferView":2,
			"componentType":5126,
			"count":116,
			"type":"VEC3"
		},
		{
			"bufferView":3,
			"componentType":5126,
			"count":116,
			"type":"VEC2"
		},
		{
			"bufferView":4,
			"componentType":5123,
			"count":291,
			"type":"SCALAR"
		},
		{
			"bufferView":6,
			"componentType":5126,
			"count":116,
			"type":"VEC4"
		},
		{
			"bufferView":7,
			"componentType":5126,
			"count":116,
			"max":[
				0.023293999955058098,
				-0.08834300190210342,
				-0.002185000106692314
			],
			"min":[
				-0.023293999955058098,
				-0.2207529991865158,
				-0.0799039974808693
			],
			"type":"VEC3"
		},
		{
			"bufferView":8,
			"componentType":5126,
			"count":116,
			"type":"VEC3"
		},
		{
			"bufferView":9,
			"componentType":5126,
			"count":116,
			"type":"VEC2"
		},
		{
			"bufferView":10,
			"componentType":5123,
			"count":228,
			"type":"SCALAR"
		},
		{
			"bufferView":12,
			"componentType":5126,
			"count":210,
			"type":"VEC4"
		},
		{
			"bufferView":13,
			"componentType":5126,
			"count":210,
			"max":[
				0.023293999955058098,
				0.03645399957895279,
				0.03491000086069107
			],
			"min":[
				-0.023293999955058098,
				-0.22576600313186646,
				-0.07963500171899796
			],
			"type":"VEC3"
		},
		{
			"bufferView":14,
			"componentType":5126,
			"count":210,
			"type":"VEC3"
		},
		{
			"bufferView":15,
			"componentType":5126,
			"count":210,
			"type":"VEC2"
		},
		{
			"bufferView":16,
			"componentType":5123,
			"count":372,
			"type":"SCALAR"
		}
	],
	"bufferViews":[
		{
			"buffer":0,
			"byteLength":1856,
			"byteOffset":0,
			"target":34962
		},
		{
			"buffer":0,
			"byteLength":1392,
			"byteOffset":1856,
			"target":34962
		},
		{
			"buffer":0,
			"byteLength":1392,
			"byteOffset":3248,
			"target":34962
		},
		{
			"buffer":0,
			"byteLength":928,
			"byteOffset":4640,
			"target":34962
		},
		{
			"buffer":0,
			"byteLength":582,
			"byteOffset":5568,
			"target":34963
		},
		{
			"buffer":0,
			"byteLength":4722,
			"byteOffset":6152
		},
		{
			"buffer":0,
			"byteLength":1856,
			"byteOffset":10876,
			"target":34962
		},
		{
			"buffer":0,
			"byteLength":1392,
			"byteOffset":12732,
			"target":34962
		},
		{
			"buffer":0,
			"byteLength":1392,
			"byteOffset":14124,
			"target":34962
		},
		{
			"buffer":0,
			"byteLength":928,
			"byteOffset":15516,
			"target":34962
		},
		{
			"buffer":0,
			"byteLength":456,
			"byteOffset":16444,
			"target":34963
		},
		{
			"buffer":0,
			"byteLength":3914,
			"byteOffset":16900
		},
		{
			"buffer":0,
			"byteLength":3360,
			"byteOffset":20816,
			"target":34962
		},
		{
			"buffer":0,
			"byteLength":2520,
			"byteOffset":24176,
			"target":34962
		},
		{
			"buffer":0,
			"byteLength":2520,
			"byteOffset":26696,
			"target":34962
		},
		{
			"buffer":0,
			"byteLength":1680,
			"byteOffset":29216,
			"target":34962
		},
		{
			"buffer":0,
			"byteLength":744,
			"byteOffset":30896,
			"target":34963
		},
		{
			"buffer":0,
			"byteLength":4265,
			"byteOffset":31640
		}
	],
	"samplers":[
		{
			"magFilter":9729,
			"minFilter":9987
		}
	],
	"buffers":[
		{
			"byteLength":35908,
			"uri":"data:application/octet-stream;base64,"
		}
	]
}
